<?xml version="1.0" encoding="UTF-8"?>
<svg id="_레이어_1" data-name="레이어 1" xmlns="http://www.w3.org/2000/svg" viewBox="0 0 340.4 440.34">
  <defs>
    <style>
      .cls-1 {
        stroke-width: 1.09px;
      }

      .cls-1, .cls-2 {
        stroke-miterlimit: 10;
      }

      .cls-1, .cls-2, .cls-3, .cls-4, .cls-5 {
        stroke: #000;
      }

      .cls-2, .cls-4 {
        stroke-width: 6px;
      }

      .cls-6 {
        fill: #fff;
      }

      .cls-3 {
        stroke-width: 10px;
      }

      .cls-3, .cls-4, .cls-5 {
        fill: none;
        stroke-linecap: round;
        stroke-linejoin: round;
      }

      .cls-5 {
        stroke-width: 12px;
      }
    </style>
  </defs>
  <g>
    <g>
      <ellipse cx="170.2" cy="270.34" rx="165.2" ry="165"/>
      <ellipse class="cls-3" cx="170.2" cy="270.34" rx="165.2" ry="165"/>
    </g>
    <g>
      <path class="cls-2" d="m237.32,3c-15.79,0-28.6,12.8-28.6,28.6,0,13.4,9.22,24.65,21.67,27.75-.83,9.07-1.72,18.24-2.69,27.5-.86,8.25-1.75,16.42-2.69,24.51.6.23,1.21.48,1.82.74l-.17,1.54c.06-.52.12-1.03.18-1.54,1.86.77,3.78,1.64,5.75,2.62.27.14.52.28.79.41l.79,2.33c-.01-.64-.02-1.29-.02-1.93.55.29,1.12.57,1.65.86.41-18.71.84-37.42,1.21-56.13-.24-.03-.48-.06-.72-.09.35.01.69.03,1.04.03,15.79,0,28.6-12.8,28.6-28.6s-12.8-28.6-28.6-28.6Z"/>
      <path class="cls-2" d="m105.62,3.36c-15.79,0-28.6,12.8-28.6,28.6s12.8,28.6,28.6,28.6c.35,0,.7-.01,1.04-.03-.24.03-.48.06-.72.09.37,18.71.8,37.42,1.21,56.13.53-.29,1.1-.57,1.65-.86,0,.64-.01,1.29-.02,1.93l.79-2.33c.27-.14.52-.28.79-.41,1.97-.98,3.89-1.85,5.75-2.62.06.52.12,1.03.18,1.54l-.17-1.54c.62-.26,1.22-.5,1.82-.74-.93-8.08-1.83-16.25-2.69-24.51-.96-9.26-1.86-18.43-2.69-27.5,12.44-3.1,21.67-14.34,21.67-27.75,0-15.79-12.8-28.6-28.6-28.6Z"/>
    </g>
  </g>
  <g>
    <path d="m236.97,109.58c4.12-23,2.05-46.14,1.35-69.32l-10.02,5.75c7.63,4.43,16.98-.62,17.64-9.44.59-7.97-6.11-15.45-14.29-14.98s-14.55,9.85-10.83,17.6c3.29,6.87,13.4,9.11,18.89,3.45,5.84-6.03,3.28-16.54-1.59-22.36-5.52-6.6-15.22-5.94-19.03,2.02-3.05,6.37-1.6,15.55,3.65,20.35,6.45,5.89,16.01,2.37,19.83-4.67,8.19-15.11-11.24-32.6-24.45-20.2-13.03,12.22,4.5,32.42,19.22,23.45,6.95-4.24,10.2-13.09,7.17-20.7-3.09-7.75-11.7-11.1-19.3-7.77-16.71,7.31-9.41,38.23,9.38,33.35,8.59-2.23,11.99-11.9,10.85-19.97-1.37-9.7-13.15-12.99-19.09-4.91-5.06,6.88-1.49,21.61,7.88,22.99,11.42,1.68,13.63-14.25,12.39-22.16-.56-3.58-5-5.49-8.19-4.65-3.83,1.01-5.16,4.65-4.65,8.19s-2.01,7.56-3.13,10.67c-1.2,3.3-1.91,6.64-2.39,10.11-1.02,7.45-.92,14.99-1.03,22.49-.25,16.09-.42,32.18-.17,48.27.13,8.56,13.45,8.59,13.32,0-.26-16.73-.06-33.47.2-50.2.12-7.61-.27-15.55,1.62-22.99s5.63-13.61,4.43-21.88l-12.84,3.54c.18,1.15.11,2.35-.1,3.49-.08.46-1.29,3.25-1.26,3.31l5.75-.52-.45-1.11c-.6-2.23-1.18-.88-3.5-1.79-4.06-1.6-.57,1.77-2.52,3.69-.78.78-.66.49-1.61-.51-1.55-1.62-1.39-9.38,1.79-7.3,2.26,1.48-1.22,6.08-3.41,5.35-1.8-.6-2.15-2.94-.02-3.21,1.2-.15,1.98.57,2.44,1.62.69,1.58-.55,2.39-.46,3.66l1.22.59-.39-.65c.1-.42-.39-1.69-.41-2.21,0-.25.3-2.29.28-2.32l-3.28,1.01.5.75s1,2.67,1.13,2.87c.16.41.24.84.24,1.28-.07,1.39.71,1.07,2.33-.95.28.12,1.14,2.8.35,2.26.36.23.46.36.3.36-.81.05-.04-.21,2.3-.76-4.26-2.48-10.17.65-10.02,5.75.66,21.87,3.01,44.08-.88,65.78-1.5,8.38,11.33,11.97,12.84,3.54h0Z"/>
    <path d="m241.8,50.17c3.49-1.21,6.92-2.53,9.15-5.64,2.36-3.28,2.46-7.86,2.9-11.77,1.14-10.15-6.35-16.85-14.98-20.64-7.41-3.25-16.1-2.49-21.12,4.53-4.17,5.83-4.27,14.34-2.1,20.97,2.27,6.92,7.29,12.36,14.83,12.96s15.87-2.9,19.98-9.36,4.64-16.8,1.08-23.46c-3.16-5.91-11.07-9.72-17.39-11.11-10.36-2.28-17.32,5.08-19.85,14.54-1.98,7.39-1.72,19.97,6.89,23.06,3.2,1.14,7.56-1.3,8.19-4.65,1.41-7.47-3.52-14.24,3.09-20.32,3.97-3.65,9.23-5.1,12.35.32,2.66,4.6,3.82,12.54-.46,16.59-1.62,1.53-4.04,2.16-6.02,3.15-.74.37-1.72.8-2.38,1.28-.37.13-.7.31-1.01.53-3.02.82-1.32,2.28,5.12,4.38l-1.71,6.48c1.03-.91,2.66-1.1,3.84-1.78,1.82-1.06,3.14-2.49,4.41-4.13,2.49-3.22,4.36-6.86,5.59-10.74,2.1-6.61,2.98-15.07-1.37-20.95-2.3-3.12-5.57-4.25-8.7-6.26-2.63-1.69-4.78-3.77-7.93-4.51-7.6-1.77-13.82,3.67-14.53,11-.82,8.52,12.5,8.47,13.32,0-.4,4.16-3.49.45-1.06,2.48,1.45,1.21,3.1,2.34,4.73,3.27,3.31,1.88,4.29,2.04,3.86,6.29-.36,3.6-1.63,7.24-3.67,10.23-1.9,2.79-5.35,3.43-7.91,5.67-1.69,1.49-2.4,4.35-1.71,6.48,3.4,10.53,15.61,3.27,21.87-.07,11.46-6.12,13.43-20.9,9.05-32.06s-16.3-18.05-27.88-12.26c-5.06,2.53-9.84,6.94-12.46,11.98-1.56,2.99-2.27,6.06-2.47,9.42-.1,1.72.03,3.4.24,5.11.16,1.32,1.19,3.65.96,4.87l8.19-4.65c3.52,1.26,2.94,3.57,2.21.28-.15-.68-.28-1.36-.34-2.05-.2-2.62.43-5.48,1.58-7.84,1.86-3.8,4.41-1.89,7.63-.31,4.1,2,5.14,3.68,4.51,8.54-.55,4.3-2.76,6.67-7.16,7.24-3.26.42-4.15-1.34-5.01-4.29-.66-2.27-1.39-6.95.57-8.83,2.65-2.54,8.66,1.86,10.55,3.72,2.05,2.02,1.3,3.62.9,6.25-.06.36-.91,3.47.11,2.54.3-.27-2.1.7-2.03.67-8.05,2.78-4.59,15.65,3.54,12.84h0Z"/>
    <path d="m226.21,54.51c-1.55,19.67-4.51,39.18-6.66,58.79-.93,8.51,12.39,8.44,13.32,0,2.15-19.61,5.11-39.12,6.66-58.79.67-8.54-12.65-8.5-13.32,0h0Z"/>
    <circle class="cls-1" cx="236.86" cy="31.27" r="28.6"/>
    <circle class="cls-6" cx="237.1" cy="31.01" r="23.27"/>
    <path class="cls-6" d="m234.08,59.61c.78.12,1.64.23,2.46.32-.37,18.71-.8,37.42-1.21,56.13-1.03-.57-2.1-1.13-3.2-1.68-2.62-1.31-5.15-2.41-7.57-3.36.93-8.08,1.83-16.25,2.69-24.51.98-9.42,1.89-18.75,2.73-27.98,1.33.47,2.65.85,4.1,1.07Z"/>
  </g>
  <g>
    <path d="m117.9,106.41c-3.89-21.7-1.53-43.91-.88-65.78.15-5.1-5.75-8.22-10.02-5.75.58-.34,1.76.92,2.45.58.23-.16.2-.26-.11-.3-.87-.31-.67-1.02.61-2.13l2.29,1.51.08-1.12c.38-.54.92-2.37,1.02-3,.15-.34.34-.66.56-.96.94-1.16-.07-1.63-3.03-1.39-.16.19.42,1.33.3,1.74-.14.51-.38,1.88-.32,2.37-.03.28-.13.53-.3.74-.36.46-.22.47.42.03.7-.09.8-.34.29-.73l-.32-.8c0-.69-.13-1.3.07-2,.33-1.12.98-2.03,2.25-2.06,2.45-.06,2.11,2.57.26,3.24-2.09.76-5.48-3.44-3.52-5.15,2.86-2.49,3.46,4.93,2.31,6.62-3,4.41-1.68-2.38-2.64-3.46-1.49,1.63-2.95,2.05-4.38,1.23-.58-.49-.85-.32-.8.52-2.73,3.01,5.06,3.56,5.09,2.42.02-.63-.94-1.98-1.12-2.68-.34-1.33-.45-2.76-.24-4.13l-12.84-3.54c-1.19,8.23,2.46,14.17,4.43,21.88s1.5,15.38,1.62,22.99c.26,16.73.46,33.47.2,50.2-.13,8.57,13.18,8.57,13.32,0,.25-16.09.08-32.18-.17-48.27-.11-7.2,0-14.45-.92-21.6-.44-3.46-1.07-6.86-2.2-10.17s-3.97-7.8-3.44-11.49-.89-7.11-4.65-8.19c-3.15-.91-7.64,1.1-8.19,4.65-1.13,7.22-.05,19.51,8.6,21.97s14.51-8.82,14.02-16.23c-.52-7.86-9.49-14.61-16.8-9.68-6.39,4.31-5.84,14.69-2.61,20.8,3.91,7.4,12.84,9.67,19.84,5.09,7.36-4.81,9.97-14.97,6.57-22.91-3.2-7.47-11.91-11.77-19.67-8.66s-10.69,12.19-8.06,19.6,10.82,13.11,18.92,11.23c7.08-1.64,12.34-8.48,12.15-15.75-.2-7.76-6.99-13.56-14.51-13.84s-14.27,5.33-15.9,12.85,2.33,16.46,10.21,18.67c8.54,2.39,14.82-4.64,16-12.46,1.06-7.05-1.54-15.78-9.62-17s-13.79,7.29-15.2,14.48c-1.85,9.43,5.51,18.62,15.49,14.75,9.1-3.53,9.71-15.69,1.97-21.07s-18.9-.09-20.56,9.19c-1.79,10.02,8.37,18.19,17.46,12.9l-10.02-5.75c-.69,23.18-2.77,46.32,1.35,69.32,1.51,8.42,14.34,4.85,12.84-3.54h0Z"/>
    <path d="m103.77,37.7c-.21-.07-1.98-.62-2.03-.67,1.01,1.06.29-1.15.22-1.66-.39-2.87-1.45-4.9.78-7.13,1.8-1.8,7.62-6.02,10.28-3.97,2.29,1.76,1.52,6.74.84,9.09-.86,2.98-1.73,4.7-5.01,4.29-4.43-.55-6.59-2.96-7.16-7.24s.16-6.37,3.94-8.26c3.27-1.64,6.24-3.93,8.21.03,1.13,2.28,1.73,5.06,1.58,7.6-.05.79-.16,1.5-.33,2.28-.68,3.15-1.63,1.09,2.21-.28l8.19,4.65c-.19-.99.67-2.87.84-3.98.26-1.7.44-3.43.4-5.15-.08-3.31-.72-6.6-2.17-9.58-2.59-5.34-7.5-10.03-12.8-12.66-11.62-5.75-23.42.95-27.88,12.26s-2.37,25.88,9.05,32.06c6.23,3.37,18.47,10.57,21.87.07.69-2.12-.02-4.99-1.71-6.48-2.56-2.25-6.01-2.88-7.91-5.67-2.04-2.99-3.3-6.63-3.67-10.23-.43-4.26.55-4.42,3.86-6.29,1.64-.93,3.29-2.06,4.73-3.27,2.44-2.03-.65,1.68-1.06-2.48.82,8.45,14.14,8.54,13.32,0-.71-7.33-6.93-12.78-14.53-11-3.18.74-5.27,2.82-7.93,4.51-3.14,1.99-6.4,3.15-8.7,6.26-4.34,5.88-3.46,14.36-1.37,20.95,1.23,3.88,3.09,7.52,5.59,10.74,1.27,1.64,2.59,3.07,4.41,4.13,1.18.69,2.81.88,3.84,1.78l-1.71-6.48c6.44-2.1,8.15-3.56,5.12-4.38-.31-.23-.64-.4-1.01-.53-.7-.51-1.62-.89-2.38-1.28-1.99-1.02-4.38-1.6-6.02-3.15-4.27-4.04-3.11-11.99-.46-16.59,3.13-5.42,8.4-3.96,12.35-.32,6.59,6.06,1.68,12.88,3.09,20.32.64,3.36,5,5.79,8.19,4.65,7.01-2.51,8.37-11.5,7.76-18.07-.79-8.46-5.32-18.61-14.7-19.86-6.54-.86-15.32,2.85-20.14,7.24-6.1,5.56-6.5,15.19-4.32,22.67,4.27,14.67,26.72,20.42,34.94,6.02,7.01-12.28,2.78-34.09-14.93-32.02-9.01,1.05-20.03,8.53-21.29,18-.54,4.05.08,10.79,1.86,14.54,2.01,4.23,6.03,5.96,10.21,7.4,8.12,2.8,11.6-10.06,3.54-12.84h0Z"/>
    <path d="m102.5,54.87c1.55,19.67,4.51,39.18,6.66,58.79.92,8.43,14.25,8.52,13.32,0-2.15-19.61-5.11-39.12-6.66-58.79-.67-8.49-13.99-8.56-13.32,0h0Z"/>
    <circle class="cls-1" cx="105.16" cy="31.63" r="28.6"/>
    <circle class="cls-6" cx="104.92" cy="31.37" r="23.27"/>
    <path class="cls-6" d="m107.94,59.97c-.78.12-1.64.23-2.46.32.37,18.71.8,37.42,1.21,56.13,1.03-.57,2.1-1.13,3.2-1.68,2.62-1.31,5.15-2.41,7.57-3.36-.93-8.08-1.83-16.25-2.69-24.51-.98-9.42-1.89-18.75-2.73-27.98-1.33.47-2.65.85-4.1,1.07Z"/>
  </g>
  <g>
    <ellipse class="cls-6" cx="169.75" cy="270.02" rx="165.2" ry="165"/>
    <ellipse class="cls-4" cx="169.75" cy="270.02" rx="165.2" ry="165"/>
  </g>
  <path class="cls-5" d="m146.15,334.34c14.24,10.77,34.22,9.35,48.89-.33"/>
  <g>
    <ellipse cx="110.27" cy="264.32" rx="36.05" ry="37.99" transform="translate(-29.96 14.6) rotate(-6.67)"/>
    <path class="cls-6" d="m132.64,254.87c-.24,1-.66,1.96-1.26,2.83-1.87,2.69-5.2,4.19-8.49,5.06-5.38,1.42-11.02,1.51-16.54,2.29-3.8.53-7.61,1.39-11.42,1.07-3.81-.32-7.74-2.13-9.15-5.42-.82-1.93-.69-4.11-.22-6.16,3.79-16.58,26.18-22.26,40.06-13.14,2.77,1.82,5.2,4.2,6.44,7.14.84,1.99,1.09,4.25.58,6.33Z"/>
    <path class="cls-6" d="m132.62,276.65c1.06,6.13-2.33,11.56-8.19,13.98-.86.36-1.77.65-2.72.85-3.63,1.58-8.2,2.43-12.56,2.12-.87-.06-1.74-.17-2.58-.33-7.06-1.45-16.82-7.36-11.67-15.01,4.93-6.24,14.54-8.2,22.08-8.06.68.01,1.36.06,2.03.14s1.35.19,2.01.34c4.2,0,7.41,1.65,10.26,3.93.59.58,1.04,1.26,1.33,2.04Z"/>
  </g>
  <g>
    <ellipse cx="225.05" cy="263.15" rx="36.05" ry="37.99" transform="translate(-29.05 27.93) rotate(-6.67)"/>
    <path class="cls-6" d="m247.43,253.71c-.24,1-.66,1.96-1.26,2.83-1.87,2.69-5.2,4.19-8.49,5.06-5.38,1.42-11.02,1.51-16.54,2.29-3.8.53-7.61,1.39-11.42,1.07s-7.74-2.13-9.15-5.42c-.82-1.93-.69-4.11-.22-6.16,3.79-16.58,26.18-22.26,40.06-13.14,2.77,1.82,5.2,4.2,6.44,7.14.84,1.99,1.09,4.25.58,6.33Z"/>
    <path class="cls-6" d="m247.41,275.48c1.06,6.13-2.33,11.56-8.19,13.98-.86.36-1.77.65-2.72.85-3.63,1.58-8.2,2.43-12.56,2.12-.87-.06-1.74-.17-2.58-.33-7.06-1.45-16.82-7.36-11.67-15.01,4.93-6.24,14.54-8.2,22.08-8.06.68.01,1.36.06,2.03.14s1.35.19,2.01.34c4.2,0,7.41,1.65,10.26,3.93.59.58,1.04,1.26,1.33,2.04Z"/>
  </g>
</svg>